<svg width="451" height="478" viewBox="0 0 451 478" fill="none" xmlns="http://www.w3.org/2000/svg">
<path d="M225.333 477.97C338.301 477.97 429.879 386.392 429.879 273.424C429.879 160.457 338.301 68.8788 225.333 68.8788C112.366 68.8788 20.7878 160.457 20.7878 273.424C20.7878 386.392 112.366 477.97 225.333 477.97Z" fill="#E6E6E6"/>
<mask id="mask0_1_73" style="mask-type:luminance" maskUnits="userSpaceOnUse" x="20" y="68" width="410" height="410">
<path d="M225.333 477.97C338.301 477.97 429.879 386.392 429.879 273.424C429.879 160.457 338.301 68.8788 225.333 68.8788C112.366 68.8788 20.7878 160.457 20.7878 273.424C20.7878 386.392 112.366 477.97 225.333 477.97Z" fill="white"/>
</mask>
<g mask="url(#mask0_1_73)">
<path d="M429.879 68.8788H20.7878V477.97H429.879V68.8788Z" fill="#DF95FE"/>
</g>
<mask id="mask1_1_73" style="mask-type:luminance" maskUnits="userSpaceOnUse" x="0" y="0" width="451" height="478">
<path d="M20.7879 273.424C20.7879 386.392 112.366 477.97 225.333 477.97C338.301 477.97 429.879 386.392 429.879 273.424H450.333V0.696976H0.333313V273.424H20.7879Z" fill="white"/>
</mask>
<g mask="url(#mask1_1_73)">
<path d="M266.242 308.557V339.902H273.061C340.841 339.902 395.788 394.848 395.788 462.629V477.97H54.8788V462.629C54.8788 394.848 109.826 339.902 177.606 339.902H184.424V308.557C155.042 294.599 133.922 266.073 130.399 232.313C120.47 230.909 112.833 222.377 112.833 212.061V188.197C112.833 178.062 120.205 169.648 129.879 168.025V157.515C129.879 104.797 172.615 62.0606 225.333 62.0606C278.051 62.0606 320.788 104.797 320.788 157.515V168.025C330.462 169.648 337.833 178.062 337.833 188.197V212.061C337.833 222.377 330.196 230.909 320.268 232.313C316.744 266.073 295.624 294.599 266.242 308.557Z" fill="#D0C6AC"/>
<mask id="mask2_1_73" style="mask-type:luminance" maskUnits="userSpaceOnUse" x="54" y="62" width="342" height="416">
<path d="M266.242 308.557V339.902H273.061C340.841 339.902 395.788 394.848 395.788 462.629V477.97H54.8788V462.629C54.8788 394.848 109.826 339.902 177.606 339.902H184.424V308.557C155.042 294.599 133.922 266.073 130.399 232.313C120.47 230.909 112.833 222.377 112.833 212.061V188.197C112.833 178.062 120.205 169.648 129.879 168.025V157.515C129.879 104.797 172.615 62.0606 225.333 62.0606C278.051 62.0606 320.788 104.797 320.788 157.515V168.025C330.462 169.648 337.833 178.062 337.833 188.197V212.061C337.833 222.377 330.196 230.909 320.268 232.313C316.744 266.073 295.624 294.599 266.242 308.557Z" fill="white"/>
</mask>
<g mask="url(#mask2_1_73)">
<path d="M450.333 62.0606H0.333313V477.97H450.333V62.0606Z" fill="#AE5D29"/>
</g>
<mask id="mask3_1_73" style="mask-type:luminance" maskUnits="userSpaceOnUse" x="54" y="62" width="342" height="416">
<path d="M266.242 308.557V339.902H273.061C340.841 339.902 395.788 394.848 395.788 462.629V477.97H54.8788V462.629C54.8788 394.848 109.826 339.902 177.606 339.902H184.424V308.557C155.042 294.599 133.922 266.073 130.399 232.313C120.47 230.909 112.833 222.377 112.833 212.061V188.197C112.833 178.062 120.205 169.648 129.879 168.025V157.515C129.879 104.797 172.615 62.0606 225.333 62.0606C278.051 62.0606 320.788 104.797 320.788 157.515V168.025C330.462 169.648 337.833 178.062 337.833 188.197V212.061C337.833 222.377 330.196 230.909 320.268 232.313C316.744 266.073 295.624 294.599 266.242 308.557Z" fill="white"/>
</mask>
<g mask="url(#mask3_1_73)">
<path fill-rule="evenodd" clip-rule="evenodd" d="M320.788 196.72V235.924C320.788 288.642 278.051 331.379 225.333 331.379C172.615 331.379 129.879 288.642 129.879 235.924V196.72V222.288C129.879 275.006 172.615 317.742 225.333 317.742C278.051 317.742 320.788 275.006 320.788 222.288V196.72Z" fill="black" fill-opacity="0.1"/>
</g>
<path fill-rule="evenodd" clip-rule="evenodd" d="M184.424 312.75C153.881 316.167 130.356 325.501 129.886 349.524C85.8102 368.143 54.8788 411.773 54.8788 462.628V477.97H395.788V462.628C395.788 411.773 364.856 368.143 320.781 349.524C320.311 325.501 296.786 316.167 266.242 312.75V345.015C266.242 367.609 247.927 385.924 225.333 385.924C202.74 385.924 184.424 367.609 184.424 345.015V312.75Z" fill="#B7C1DB"/>
<mask id="mask4_1_73" style="mask-type:luminance" maskUnits="userSpaceOnUse" x="54" y="312" width="342" height="166">
<path fill-rule="evenodd" clip-rule="evenodd" d="M184.424 312.75C153.881 316.167 130.356 325.501 129.886 349.524C85.8102 368.143 54.8788 411.773 54.8788 462.628V477.97H395.788V462.628C395.788 411.773 364.856 368.143 320.781 349.524C320.311 325.501 296.786 316.167 266.242 312.75V345.015C266.242 367.609 247.927 385.924 225.333 385.924C202.74 385.924 184.424 367.609 184.424 345.015V312.75Z" fill="white"/>
</mask>
<g mask="url(#mask4_1_73)">
<path d="M450.333 290.47H0.333313V477.97H450.333V290.47Z" fill="#FF488E"/>
</g>
<mask id="mask5_1_73" style="mask-type:luminance" maskUnits="userSpaceOnUse" x="54" y="312" width="342" height="166">
<path fill-rule="evenodd" clip-rule="evenodd" d="M184.424 312.75C153.881 316.167 130.356 325.501 129.886 349.524C85.8102 368.143 54.8788 411.773 54.8788 462.628V477.97H395.788V462.628C395.788 411.773 364.856 368.143 320.781 349.524C320.311 325.501 296.786 316.167 266.242 312.75V345.015C266.242 367.609 247.927 385.924 225.333 385.924C202.74 385.924 184.424 367.609 184.424 345.015V312.75Z" fill="white"/>
</mask>
<g mask="url(#mask5_1_73)">
<path fill-rule="evenodd" clip-rule="evenodd" d="M174.197 395.707V477.97H162.265V389.589C166.022 391.822 170.015 393.869 174.197 395.707ZM288.402 389.589V458.367C288.402 461.662 285.73 464.333 282.436 464.333C279.141 464.333 276.47 461.662 276.47 458.367V395.707C280.651 393.869 284.645 391.822 288.402 389.589Z" fill="#F4F4F4"/>
</g>
<mask id="mask6_1_73" style="mask-type:luminance" maskUnits="userSpaceOnUse" x="54" y="312" width="342" height="166">
<path fill-rule="evenodd" clip-rule="evenodd" d="M184.424 312.75C153.881 316.167 130.356 325.501 129.886 349.524C85.8102 368.143 54.8788 411.773 54.8788 462.628V477.97H395.788V462.628C395.788 411.773 364.856 368.143 320.781 349.524C320.311 325.501 296.786 316.167 266.242 312.75V345.015C266.242 367.609 247.927 385.924 225.333 385.924C202.74 385.924 184.424 367.609 184.424 345.015V312.75Z" fill="white"/>
</mask>
<g mask="url(#mask6_1_73)">
<path fill-rule="evenodd" clip-rule="evenodd" d="M155.379 312.159C129.724 317.011 111.981 326.679 111.981 345.54C111.981 379.14 168.295 406.379 225.333 406.379C282.371 406.379 338.686 379.14 338.686 345.54C338.686 326.679 320.942 317.011 295.288 312.159C310.774 317.869 320.788 327.469 320.788 343.442C320.788 378.201 273.365 406.379 225.333 406.379C177.301 406.379 129.879 378.201 129.879 343.442C129.879 327.469 139.893 317.869 155.379 312.159Z" fill="black" fill-opacity="0.16"/>
</g>
<path fill-rule="evenodd" clip-rule="evenodd" d="M201.47 254.674C201.47 267.854 212.154 278.538 225.333 278.538C238.513 278.538 249.197 267.854 249.197 254.674" fill="black" fill-opacity="0.7"/>
<path fill-rule="evenodd" clip-rule="evenodd" d="M204.879 222.288C204.879 229.819 214.037 235.924 225.333 235.924C236.63 235.924 245.788 229.819 245.788 222.288" fill="black" fill-opacity="0.16"/>
<path fill-rule="evenodd" clip-rule="evenodd" d="M157.425 192.369C160.572 185.893 167.659 181.379 175.897 181.379C184.107 181.379 191.173 185.861 194.337 192.3C195.277 194.213 193.939 195.778 192.59 194.618C188.412 191.026 182.479 188.783 175.897 188.783C169.522 188.783 163.754 190.888 159.602 194.285C158.084 195.527 156.504 194.262 157.425 192.369Z" fill="black" fill-opacity="0.6"/>
<path fill-rule="evenodd" clip-rule="evenodd" d="M256.288 192.369C259.436 185.893 266.523 181.379 274.761 181.379C282.97 181.379 290.036 185.861 293.2 192.3C294.14 194.213 292.803 195.778 291.454 194.618C287.276 191.026 281.343 188.783 274.761 188.783C268.385 188.783 262.618 190.888 258.465 194.285C256.947 195.527 255.368 194.262 256.288 192.369Z" fill="black" fill-opacity="0.6"/>
<path fill-rule="evenodd" clip-rule="evenodd" d="M175.13 150.95C165.232 151.407 149.229 158.6 149.641 168.581C149.655 168.908 150.135 169.052 150.369 168.8C155.065 163.756 188.407 158.659 200.151 161.36C201.225 161.607 202.042 160.547 201.361 159.781C195.528 153.222 183.998 150.532 175.13 150.95Z" fill="black" fill-opacity="0.6"/>
<path fill-rule="evenodd" clip-rule="evenodd" d="M277.241 150.95C287.14 151.407 303.142 158.6 302.73 168.581C302.716 168.908 302.236 169.052 302.002 168.8C297.306 163.756 263.964 158.659 252.221 161.36C251.146 161.607 250.329 160.547 251.01 159.781C256.843 153.222 268.373 150.532 277.241 150.95Z" fill="black" fill-opacity="0.6"/>
<mask id="mask7_1_73" style="mask-type:luminance" maskUnits="userSpaceOnUse" x="0" y="0" width="451" height="478">
<path d="M450.333 0.696976H0.333313V477.97H450.333V0.696976Z" fill="white"/>
</mask>
<g mask="url(#mask7_1_73)">
<path fill-rule="evenodd" clip-rule="evenodd" d="M135.027 126.51C131.69 136.232 129.879 146.662 129.879 157.515V168.025C120.205 169.648 112.833 178.062 112.833 188.197V210.356C112.833 220.615 120.386 229.11 130.234 230.584C133.206 265.097 154.542 294.361 184.424 308.557V327.211C176.405 330.978 167.45 333.083 158.004 333.083C142.993 333.083 129.224 327.767 118.476 318.915C115.223 319.267 111.919 319.447 108.572 319.447C72.6155 319.447 41.5195 298.637 26.6704 268.404C13.8577 259.658 5.44695 244.938 5.44695 228.254C5.44695 224.649 5.8395 221.137 6.58418 217.756C2.54307 206.967 0.333313 195.283 0.333313 183.083C0.333313 161.34 7.35283 141.235 19.2494 124.913C19.1394 123.579 19.0833 122.23 19.0833 120.867C19.0833 101.61 30.2881 84.9702 46.5338 77.1111C60.9073 46.2111 91.6248 24.4513 127.578 22.9401C136.325 14.4481 148.258 9.21969 161.413 9.21969C165.379 9.21969 169.235 9.69504 172.925 10.5919C189.156 4.20492 206.835 0.69696 225.333 0.69696C242.969 0.69696 259.859 3.8852 275.46 9.71674C277.738 9.3892 280.067 9.21969 282.436 9.21969C295.59 9.21969 307.523 14.4481 316.271 22.9401C352.224 24.4513 382.941 46.2111 397.315 77.1111C413.56 84.9702 424.765 101.61 424.765 120.867C424.765 122.23 424.709 123.579 424.599 124.913C436.496 141.235 443.515 161.34 443.515 183.083C443.515 195.283 441.305 206.967 437.264 217.756C438.009 221.137 438.402 224.649 438.402 228.254C438.402 244.938 429.991 259.658 417.178 268.404C402.329 298.637 371.233 319.447 335.276 319.447C331.93 319.447 328.626 319.267 325.372 318.915C314.625 327.767 300.855 333.083 285.845 333.083C278.996 333.083 272.405 331.977 266.242 329.932V308.557C296.124 294.361 317.461 265.097 320.432 230.584C330.281 229.11 337.833 220.615 337.833 210.356V188.197C337.833 178.062 330.462 169.648 320.788 168.025V157.515C320.788 148.24 319.465 139.274 316.998 130.795L319.344 152.733L300.014 111.824L223.078 78.5448L171.748 96.5408L135.103 130.957L135.027 126.51Z" fill="#314756"/>
<mask id="mask8_1_73" style="mask-type:luminance" maskUnits="userSpaceOnUse" x="0" y="0" width="444" height="334">
<path fill-rule="evenodd" clip-rule="evenodd" d="M135.027 126.51C131.69 136.232 129.879 146.662 129.879 157.515V168.025C120.205 169.648 112.833 178.062 112.833 188.197V210.356C112.833 220.615 120.386 229.11 130.234 230.584C133.206 265.097 154.542 294.361 184.424 308.557V327.211C176.405 330.978 167.45 333.083 158.004 333.083C142.993 333.083 129.224 327.767 118.476 318.915C115.223 319.267 111.919 319.447 108.572 319.447C72.6155 319.447 41.5195 298.637 26.6704 268.404C13.8577 259.658 5.44695 244.938 5.44695 228.254C5.44695 224.649 5.8395 221.137 6.58418 217.756C2.54307 206.967 0.333313 195.283 0.333313 183.083C0.333313 161.34 7.35283 141.235 19.2494 124.913C19.1394 123.579 19.0833 122.23 19.0833 120.867C19.0833 101.61 30.2881 84.9702 46.5338 77.1111C60.9073 46.2111 91.6248 24.4513 127.578 22.9401C136.325 14.4481 148.258 9.21969 161.413 9.21969C165.379 9.21969 169.235 9.69504 172.925 10.5919C189.156 4.20492 206.835 0.69696 225.333 0.69696C242.969 0.69696 259.859 3.8852 275.46 9.71674C277.738 9.3892 280.067 9.21969 282.436 9.21969C295.59 9.21969 307.523 14.4481 316.271 22.9401C352.224 24.4513 382.941 46.2111 397.315 77.1111C413.56 84.9702 424.765 101.61 424.765 120.867C424.765 122.23 424.709 123.579 424.599 124.913C436.496 141.235 443.515 161.34 443.515 183.083C443.515 195.283 441.305 206.967 437.264 217.756C438.009 221.137 438.402 224.649 438.402 228.254C438.402 244.938 429.991 259.658 417.178 268.404C402.329 298.637 371.233 319.447 335.276 319.447C331.93 319.447 328.626 319.267 325.372 318.915C314.625 327.767 300.855 333.083 285.845 333.083C278.996 333.083 272.405 331.977 266.242 329.932V308.557C296.124 294.361 317.461 265.097 320.432 230.584C330.281 229.11 337.833 220.615 337.833 210.356V188.197C337.833 178.062 330.462 169.648 320.788 168.025V157.515C320.788 148.24 319.465 139.274 316.998 130.795L319.344 152.733L300.014 111.824L223.078 78.5448L171.748 96.5408L135.103 130.957L135.027 126.51Z" fill="white"/>
</mask>
<g mask="url(#mask8_1_73)">
<path d="M448.629 0.69696H-1.37122V477.97H448.629V0.69696Z" fill="#4A312C"/>
</g>
<path fill-rule="evenodd" clip-rule="evenodd" d="M129.25 169.404C128.542 165.055 128.174 160.602 128.174 156.07C128.174 106.974 171.292 67.1742 224.481 67.1742C277.67 67.1742 320.788 106.974 320.788 156.07C320.788 160.602 320.42 165.055 319.712 169.404C312.742 126.634 272.76 93.843 224.481 93.843C176.202 93.843 136.22 126.634 129.25 169.404Z" fill="#92D9FF"/>
<g filter="url(#filter0_d_1_73)">
<path fill-rule="evenodd" clip-rule="evenodd" d="M241.466 173.528C248.14 160.002 262.071 150.697 278.174 150.697C293.378 150.697 306.645 158.991 313.697 171.302C314.055 171.204 314.433 171.152 314.822 171.152H328.458C330.812 171.152 332.72 173.059 332.72 175.413C332.72 177.766 330.812 179.674 328.458 179.674H317.316C318.465 183.449 319.083 187.455 319.083 191.606C319.083 214.2 300.768 232.515 278.174 232.515C255.581 232.515 237.265 214.2 237.265 191.606C237.265 189.182 237.476 186.808 237.88 184.5C237.736 177.041 232.004 171.152 225.099 171.152C218.729 171.152 213.358 176.162 212.45 182.794C213.073 185.632 213.402 188.581 213.402 191.606C213.402 214.2 195.086 232.515 172.492 232.515C149.899 232.515 131.583 214.2 131.583 191.606C131.583 187.455 132.201 183.449 133.351 179.674H122.208C119.855 179.674 117.947 177.766 117.947 175.413C117.947 173.059 119.855 171.152 122.208 171.152H135.845C136.234 171.152 136.611 171.204 136.97 171.302C144.022 158.991 157.288 150.697 172.492 150.697C188.434 150.697 202.245 159.815 208.996 173.12C212.537 167.809 218.429 164.333 225.099 164.333C231.938 164.333 237.959 167.988 241.466 173.528ZM172.492 225.697C191.32 225.697 206.583 210.434 206.583 191.606C206.583 172.778 191.32 157.515 172.492 157.515C153.665 157.515 138.402 172.778 138.402 191.606C138.402 210.434 153.665 225.697 172.492 225.697ZM278.174 225.697C297.002 225.697 312.265 210.434 312.265 191.606C312.265 172.778 297.002 157.515 278.174 157.515C259.346 157.515 244.083 172.778 244.083 191.606C244.083 210.434 259.346 225.697 278.174 225.697Z" fill="black"/>
</g>
<path fill-rule="evenodd" clip-rule="evenodd" d="M241.466 173.528C248.14 160.002 262.071 150.697 278.174 150.697C293.378 150.697 306.645 158.991 313.697 171.302C314.055 171.204 314.433 171.152 314.822 171.152H328.458C330.812 171.152 332.72 173.059 332.72 175.413C332.72 177.766 330.812 179.674 328.458 179.674H317.316C318.465 183.449 319.083 187.455 319.083 191.606C319.083 214.2 300.768 232.515 278.174 232.515C255.581 232.515 237.265 214.2 237.265 191.606C237.265 189.182 237.476 186.808 237.88 184.5C237.736 177.041 232.004 171.152 225.099 171.152C218.729 171.152 213.358 176.162 212.45 182.794C213.073 185.632 213.402 188.581 213.402 191.606C213.402 214.2 195.086 232.515 172.492 232.515C149.899 232.515 131.583 214.2 131.583 191.606C131.583 187.455 132.201 183.449 133.351 179.674H122.208C119.855 179.674 117.947 177.766 117.947 175.413C117.947 173.059 119.855 171.152 122.208 171.152H135.845C136.234 171.152 136.611 171.204 136.97 171.302C144.022 158.991 157.288 150.697 172.492 150.697C188.434 150.697 202.245 159.815 208.996 173.12C212.537 167.809 218.429 164.333 225.099 164.333C231.938 164.333 237.959 167.988 241.466 173.528ZM172.492 225.697C191.32 225.697 206.583 210.434 206.583 191.606C206.583 172.778 191.32 157.515 172.492 157.515C153.665 157.515 138.402 172.778 138.402 191.606C138.402 210.434 153.665 225.697 172.492 225.697ZM278.174 225.697C297.002 225.697 312.265 210.434 312.265 191.606C312.265 172.778 297.002 157.515 278.174 157.515C259.346 157.515 244.083 172.778 244.083 191.606C244.083 210.434 259.346 225.697 278.174 225.697Z" fill="#252C2F"/>
</g>
</g>
<defs>
<filter id="filter0_d_1_73" x="117.947" y="150.697" width="214.773" height="85.2273" filterUnits="userSpaceOnUse" color-interpolation-filters="sRGB">
<feFlood flood-opacity="0" result="BackgroundImageFix"/>
<feColorMatrix in="SourceAlpha" type="matrix" values="0 0 0 0 0 0 0 0 0 0 0 0 0 0 0 0 0 0 127 0" result="hardAlpha"/>
<feOffset dy="3.40909"/>
<feColorMatrix type="matrix" values="0 0 0 0 0 0 0 0 0 0 0 0 0 0 0 0 0 0 0.1 0"/>
<feBlend mode="normal" in2="BackgroundImageFix" result="effect1_dropShadow_1_73"/>
<feBlend mode="normal" in="SourceGraphic" in2="effect1_dropShadow_1_73" result="shape"/>
</filter>
</defs>
</svg>
